<svg xmlns="http://www.w3.org/2000/svg" width="29.252" height="22.721" viewBox="0 0 29.252 22.721">
  <g id="Group_7896" data-name="Group 7896" transform="translate(-455.773 -2645.558)">
    <path id="Path_3254" data-name="Path 3254" d="M467.508,2645.558v1.666a11.517,11.517,0,0,0-5.545,4.065,9.7,9.7,0,0,0-2.006,5.765,1.751,1.751,0,0,0,.2.953.376.376,0,0,0,.306.2,1.072,1.072,0,0,0,.51-.238,4.8,4.8,0,0,1,6.191.8,5.285,5.285,0,0,1,1.5,3.758,5.539,5.539,0,0,1-1.717,4.014,5.647,5.647,0,0,1-4.167,1.735,6.379,6.379,0,0,1-4.932-2.347,9.153,9.153,0,0,1-2.075-6.293,13.081,13.081,0,0,1,2.823-8.231Q461.419,2647.769,467.508,2645.558Zm16.36,0v1.666a11.519,11.519,0,0,0-5.544,4.065,9.7,9.7,0,0,0-2.007,5.765,1.751,1.751,0,0,0,.2.953.379.379,0,0,0,.306.2,1.071,1.071,0,0,0,.511-.238,4.8,4.8,0,0,1,6.19.8,5.282,5.282,0,0,1,1.5,3.758,5.536,5.536,0,0,1-1.718,4.014,5.644,5.644,0,0,1-4.167,1.735,6.377,6.377,0,0,1-4.931-2.347,9.153,9.153,0,0,1-2.075-6.293,13.076,13.076,0,0,1,2.823-8.231Q477.78,2647.769,483.868,2645.558Z"/>
  </g>
</svg>
