<svg xmlns="http://www.w3.org/2000/svg" width="147.774" height="142.788" viewBox="0 0 147.774 142.788">
  <g id="Group_7522" data-name="Group 7522" transform="translate(-1058.402 -1416.679)">
    <g id="Group_7323" data-name="Group 7323">
      <rect id="Rectangle_1302" data-name="Rectangle 1302" width="48.859" height="67.385" transform="translate(1069.589 1428.743)" fill="#e0e0e0"/>
      <rect id="Rectangle_1303" data-name="Rectangle 1303" width="44.08" height="63.667" transform="translate(1071.674 1430.426)" fill="#fafafa" stroke="#fafafa" stroke-miterlimit="10" stroke-width="1"/>
      <rect id="Rectangle_1304" data-name="Rectangle 1304" width="45.1" height="1.007" transform="translate(1071.468 1448.676)" fill="#e0e0e0"/>
      <rect id="Rectangle_1305" data-name="Rectangle 1305" width="45.699" height="1.007" transform="translate(1093.21 1494.375) rotate(-90)" fill="#e0e0e0"/>
      <rect id="Rectangle_1306" data-name="Rectangle 1306" width="64.155" height="1.251" transform="translate(1062.063 1422.401)" fill="#e0e0e0"/>
      <g id="Group_7315" data-name="Group 7315">
        <path id="Path_3019" data-name="Path 3019" d="M1062.063,1426.693s.585,67.385.018,67.385h12.67v-67.385Z" fill="#ebebeb"/>
        <g id="Group_7309" data-name="Group 7309">
          <path id="Path_3020" data-name="Path 3020" d="M1065.236,1428.142a44.283,44.283,0,0,1,0-5.612,43.744,43.744,0,0,1,0,5.612Z" fill="#e0e0e0"/>
        </g>
        <g id="Group_7310" data-name="Group 7310">
          <path id="Path_3021" data-name="Path 3021" d="M1063.527,1428.142a43.8,43.8,0,0,1,0-5.612,44.283,44.283,0,0,1,0,5.612Z" fill="#e0e0e0"/>
        </g>
        <g id="Group_7311" data-name="Group 7311">
          <path id="Path_3022" data-name="Path 3022" d="M1067.2,1428.142a43.744,43.744,0,0,1,0-5.612,44.283,44.283,0,0,1,0,5.612Z" fill="#e0e0e0"/>
        </g>
        <g id="Group_7312" data-name="Group 7312">
          <path id="Path_3023" data-name="Path 3023" d="M1069.165,1428.142a43.744,43.744,0,0,1,0-5.612,44.283,44.283,0,0,1,0,5.612Z" fill="#e0e0e0"/>
        </g>
        <g id="Group_7313" data-name="Group 7313">
          <path id="Path_3024" data-name="Path 3024" d="M1071.129,1428.142a43.744,43.744,0,0,1,0-5.612,43.8,43.8,0,0,1,0,5.612Z" fill="#e0e0e0"/>
        </g>
        <g id="Group_7314" data-name="Group 7314">
          <path id="Path_3025" data-name="Path 3025" d="M1073.018,1428.142a43.8,43.8,0,0,1,0-5.612,43.744,43.744,0,0,1,0,5.612Z" fill="#e0e0e0"/>
        </g>
      </g>
      <g id="Group_7322" data-name="Group 7322">
        <path id="Path_3026" data-name="Path 3026" d="M1113.112,1426.693s.585,67.385.018,67.385h12.67v-67.385Z" fill="#ebebeb"/>
        <g id="Group_7316" data-name="Group 7316">
          <path id="Path_3027" data-name="Path 3027" d="M1116.285,1428.142a43.744,43.744,0,0,1,0-5.612,44.283,44.283,0,0,1,0,5.612Z" fill="#e0e0e0"/>
        </g>
        <g id="Group_7317" data-name="Group 7317">
          <path id="Path_3028" data-name="Path 3028" d="M1114.575,1428.142a43.8,43.8,0,0,1,0-5.612,43.744,43.744,0,0,1,0,5.612Z" fill="#e0e0e0"/>
        </g>
        <g id="Group_7318" data-name="Group 7318">
          <path id="Path_3029" data-name="Path 3029" d="M1118.249,1428.142a43.8,43.8,0,0,1,0-5.612,43.8,43.8,0,0,1,0,5.612Z" fill="#e0e0e0"/>
        </g>
        <g id="Group_7319" data-name="Group 7319">
          <path id="Path_3030" data-name="Path 3030" d="M1120.213,1428.142a43.8,43.8,0,0,1,0-5.612,43.8,43.8,0,0,1,0,5.612Z" fill="#e0e0e0"/>
        </g>
        <g id="Group_7320" data-name="Group 7320">
          <path id="Path_3031" data-name="Path 3031" d="M1122.177,1428.142a44.283,44.283,0,0,1,0-5.612,43.8,43.8,0,0,1,0,5.612Z" fill="#e0e0e0"/>
        </g>
        <g id="Group_7321" data-name="Group 7321">
          <path id="Path_3032" data-name="Path 3032" d="M1124.067,1428.142a43.8,43.8,0,0,1,0-5.612,44.283,44.283,0,0,1,0,5.612Z" fill="#e0e0e0"/>
        </g>
      </g>
    </g>
    <g id="Group_7330" data-name="Group 7330">
      <g id="Group_7329" data-name="Group 7329">
        <g id="Group_7324" data-name="Group 7324">
          <path id="Path_3033" data-name="Path 3033" d="M1162.188,1548.578V1558.7H1193.3v-10.118Z" fill="#ebebeb"/>
        </g>
        <g id="Group_7325" data-name="Group 7325">
          <path id="Path_3034" data-name="Path 3034" d="M1160.882,1545.749v2.829h33.509v-2.829h-33.509Z" fill="#f5f5f5"/>
        </g>
        <g id="Group_7326" data-name="Group 7326">
          <path id="Path_3035" data-name="Path 3035" d="M1177.637,1558.7H1193.3v-10.118h1.088v-2.829h-17.408v2.567Z" fill="#e0e0e0"/>
        </g>
        <g id="Group_7327" data-name="Group 7327">
          <rect id="Rectangle_1307" data-name="Rectangle 1307" width="6.31" height="1.523" transform="translate(1166.539 1550.209)" fill="#e0e0e0"/>
        </g>
        <g id="Group_7328" data-name="Group 7328">
          <rect id="Rectangle_1308" data-name="Rectangle 1308" width="8.103" height="3.216" transform="translate(1165.727 1553.637)" fill="#fafafa"/>
        </g>
      </g>
    </g>
    <g id="Group_7353" data-name="Group 7353">
      <g id="Group_7336" data-name="Group 7336">
        <g id="Group_7331" data-name="Group 7331">
          <path id="Path_3036" data-name="Path 3036" d="M1170.095,1534.653l-.045-3.8,13.328,1.142.416,3.763Z" fill="#ebebeb"/>
          <rect id="Rectangle_1309" data-name="Rectangle 1309" width="0.686" height="8.367" transform="translate(1172.907 1533.256) rotate(-85.113)" fill="#e0e0e0"/>
        </g>
        <g id="Group_7335" data-name="Group 7335">
          <g id="Group_7334" data-name="Group 7334">
            <path id="Path_3037" data-name="Path 3037" d="M1168.506,1531.042l-.005-3.8,13.315,1.283.339,3.4Z" fill="#e0e0e0"/>
            <path id="Path_3038" data-name="Path 3038" d="M1168.5,1527.755l-.006,2.567,12.976.957-.217-2.369Z" fill="#fff"/>
            <g id="Group_7332" data-name="Group 7332">
              <path id="Path_3039" data-name="Path 3039" d="M1180.485,1529.9a2.4,2.4,0,0,1-.471-.013l-1.276-.1c-1.076-.092-2.562-.232-4.2-.4s-3.124-.326-4.2-.45l-1.271-.157a2.425,2.425,0,0,1-.464-.082,2.237,2.237,0,0,1,.47.012l1.275.1c1.077.093,2.563.233,4.2.4s3.124.325,4.2.45l1.27.157A2.4,2.4,0,0,1,1180.485,1529.9Z" fill="#e0e0e0"/>
            </g>
            <g id="Group_7333" data-name="Group 7333">
              <path id="Path_3040" data-name="Path 3040" d="M1180.458,1530.219a2.5,2.5,0,0,1-.475,0l-1.287-.061c-1.087-.06-2.587-.154-4.244-.269s-3.155-.23-4.24-.321l-1.283-.118a2.325,2.325,0,0,1-.468-.068,2.464,2.464,0,0,1,.474,0l1.288.061c1.086.06,2.587.154,4.243.269s3.155.23,4.239.321l1.284.118A2.368,2.368,0,0,1,1180.458,1530.219Z" fill="#e0e0e0"/>
            </g>
          </g>
        </g>
      </g>
      <g id="Group_7347" data-name="Group 7347">
        <g id="Group_7338" data-name="Group 7338">
          <g id="Group_7337" data-name="Group 7337">
            <path id="Path_3041" data-name="Path 3041" d="M1170.248,1538.16l-.049-3.8,13.329,1.13.379,3.4Z" fill="#e0e0e0"/>
          </g>
        </g>
        <g id="Group_7339" data-name="Group 7339">
          <path id="Path_3042" data-name="Path 3042" d="M1171.717,1538.239a9.836,9.836,0,0,1-.163-1.874,9.939,9.939,0,0,1,.016-1.88,9.77,9.77,0,0,1,.163,1.873A10.039,10.039,0,0,1,1171.717,1538.239Z" fill="#f5f5f5"/>
        </g>
        <g id="Group_7340" data-name="Group 7340">
          <path id="Path_3043" data-name="Path 3043" d="M1172.218,1534.527a19.6,19.6,0,0,1,.081,3.742,19.6,19.6,0,0,1-.081-3.742Z" fill="#f5f5f5"/>
        </g>
        <g id="Group_7342" data-name="Group 7342">
          <path id="Path_3044" data-name="Path 3044" d="M1173.431,1536.2c2.323.256,5.055.4,7.417.613" fill="#fff"/>
          <g id="Group_7341" data-name="Group 7341">
            <path id="Path_3045" data-name="Path 3045" d="M1180.848,1536.815a6.893,6.893,0,0,1-1.091-.027c-.672-.038-1.6-.095-2.626-.172s-1.952-.162-2.622-.241a6.012,6.012,0,0,1-1.078-.173,7.312,7.312,0,0,1,1.09.046l2.624.19c1.024.076,1.952.153,2.622.223A6.377,6.377,0,0,1,1180.848,1536.815Z" fill="#f5f5f5"/>
          </g>
        </g>
        <g id="Group_7343" data-name="Group 7343">
          <path id="Path_3046" data-name="Path 3046" d="M1181.822,1538.771a8.125,8.125,0,0,1-.173-1.7,8.22,8.22,0,0,1,.006-1.707,8.145,8.145,0,0,1,.173,1.7A8.233,8.233,0,0,1,1181.822,1538.771Z" fill="#f5f5f5"/>
        </g>
        <g id="Group_7344" data-name="Group 7344">
          <path id="Path_3047" data-name="Path 3047" d="M1182.643,1538.814a16.452,16.452,0,0,1-.336-3.41,16.452,16.452,0,0,1,.336,3.41Z" fill="#f5f5f5"/>
        </g>
        <g id="Group_7346" data-name="Group 7346">
          <path id="Path_3048" data-name="Path 3048" d="M1175.409,1537.054c1.469.1,2.588.173,3.758.2" fill="#fff"/>
          <g id="Group_7345" data-name="Group 7345">
            <path id="Path_3049" data-name="Path 3049" d="M1179.167,1537.254a9.844,9.844,0,0,1-1.883-.011,9.97,9.97,0,0,1-1.875-.189,9.9,9.9,0,0,1,1.883.01A10.1,10.1,0,0,1,1179.167,1537.254Z" fill="#f5f5f5"/>
          </g>
        </g>
      </g>
      <g id="Group_7349" data-name="Group 7349">
        <g id="Group_7348" data-name="Group 7348">
          <path id="Path_3050" data-name="Path 3050" d="M1171.142,1545.588l-.25-3.8,13.37.423.557,3.37Z" fill="#e0e0e0"/>
          <path id="Path_3051" data-name="Path 3051" d="M1171.671,1545.111l13.011-.186-.362-2.363-12.894-.238Z" fill="#fafafa"/>
        </g>
      </g>
      <g id="Group_7350" data-name="Group 7350">
        <path id="Path_3052" data-name="Path 3052" d="M1171.506,1541.867l-.123-3.8,13.349.871.444,3.387Z" fill="#ebebeb"/>
        <rect id="Rectangle_1310" data-name="Rectangle 1310" width="0.686" height="8.367" transform="translate(1174.289 1540.413) rotate(-86.281)" fill="#e0e0e0"/>
      </g>
      <g id="Group_7351" data-name="Group 7351">
        <path id="Path_3053" data-name="Path 3053" d="M1184.453,1543.535a2.925,2.925,0,0,1-.51.036l-1.393.034c-1.175.021-2.8.038-4.591.045s-3.418,0-4.593-.009l-1.392-.023a2.667,2.667,0,0,1-.511-.033,2.817,2.817,0,0,1,.509-.037l1.392-.034c1.175-.02,2.8-.037,4.594-.044s3.418,0,4.593.009l1.392.023A2.639,2.639,0,0,1,1184.453,1543.535Z" fill="#e0e0e0"/>
      </g>
      <g id="Group_7352" data-name="Group 7352">
        <path id="Path_3054" data-name="Path 3054" d="M1184.606,1544.272a2.959,2.959,0,0,1-.515.028l-1.4.009c-1.184,0-2.819-.013-4.624-.038s-3.441-.057-4.624-.09l-1.4-.047a2.98,2.98,0,0,1-.514-.042,2.709,2.709,0,0,1,.514-.028l1.4-.009c1.184,0,2.82.012,4.626.037s3.442.058,4.625.09l1.4.048A2.714,2.714,0,0,1,1184.606,1544.272Z" fill="#e0e0e0"/>
      </g>
    </g>
    <g id="Group_7362" data-name="Group 7362">
      <g id="Group_7360" data-name="Group 7360">
        <g id="Group_7354" data-name="Group 7354">
          <path id="Path_3055" data-name="Path 3055" d="M1072.025,1520.216c-1.673.269-2.421,2.325-2.274,4.013s.84,3.338.654,5.022c-.236,2.139-1.852,3.946-2.04,6.09-.222,2.527,1.565,4.769,2.1,7.25a23.131,23.131,0,0,0,.673,3.634,4.542,4.542,0,0,0,8.772-1.567c.037-1.941-1.161-3.769-1.015-5.7.107-1.431.946-2.787.766-4.21-.213-1.694-1.783-2.9-2.337-4.512s-.022-3.395-.213-5.093c-.343-3.044-2.031-5.166-5.085-4.922" fill="#f5f5f5"/>
        </g>
        <g id="Group_7355" data-name="Group 7355">
          <path id="Path_3056" data-name="Path 3056" d="M1063.483,1534.957c-.285,2.821.963,6.14,2.413,8.575a13.452,13.452,0,0,0,6.316,5.482.7.7,0,0,0,1.14-.7,13.851,13.851,0,0,0-9.869-13.359" fill="#ebebeb"/>
        </g>
        <g id="Group_7357" data-name="Group 7357">
          <g id="Group_7356" data-name="Group 7356">
            <path id="Path_3057" data-name="Path 3057" d="M1075.771,1554.912a.772.772,0,0,1-.08-.157l-.2-.462c-.17-.4-.423-.983-.746-1.695a58.624,58.624,0,0,0-6.151-10.524c-.462-.631-.843-1.136-1.111-1.482-.123-.162-.223-.3-.3-.4a.749.749,0,0,1-.1-.147.693.693,0,0,1,.123.127l.327.384c.283.333.679.829,1.153,1.452a51.184,51.184,0,0,1,6.164,10.546c.31.719.548,1.307.7,1.718.071.192.128.348.174.473A.725.725,0,0,1,1075.771,1554.912Z" fill="#e0e0e0"/>
          </g>
        </g>
        <g id="Group_7359" data-name="Group 7359">
          <g id="Group_7358" data-name="Group 7358">
            <path id="Path_3058" data-name="Path 3058" d="M1073.955,1528.02a1.662,1.662,0,0,1,.031.271q.021.287.056.777c.044.69.107,1.662.184,2.858.152,2.414.366,5.748.625,9.429s.515,7.013.7,9.424c.091,1.195.166,2.167.218,2.856.023.326.04.586.053.777a1.6,1.6,0,0,1,.008.272,1.675,1.675,0,0,1-.04-.269q-.03-.287-.083-.774c-.065-.689-.156-1.659-.269-2.852-.216-2.41-.489-5.74-.749-9.423s-.455-7.018-.578-9.434c-.056-1.2-.1-2.17-.133-2.861-.011-.327-.02-.587-.027-.778A1.837,1.837,0,0,1,1073.955,1528.02Z" fill="#e0e0e0"/>
          </g>
        </g>
      </g>
      <g id="Group_7361" data-name="Group 7361">
        <path id="Path_3059" data-name="Path 3059" d="M1071.361,1550.889h7.064v5.187a3.391,3.391,0,0,1-3.391,3.391h0a3.392,3.392,0,0,1-3.387-3.21Z" fill="#e0e0e0"/>
      </g>
    </g>
    <g id="Group_7371" data-name="Group 7371">
      <g id="Group_7370" data-name="Group 7370">
        <g id="Group_7369" data-name="Group 7369">
          <g id="Group_7364" data-name="Group 7364">
            <g id="Group_7363" data-name="Group 7363">
              <path id="Path_3060" data-name="Path 3060" d="M1174.055,1428l-1.866,17.313h23.9l1.982-17.313Z" fill="#ebebeb"/>
            </g>
          </g>
          <g id="Group_7366" data-name="Group 7366">
            <g id="Group_7365" data-name="Group 7365">
              <path id="Path_3061" data-name="Path 3061" d="M1175.038,1429.247l-1.815,15.149H1194.8l1.745-15.149Z" fill="#fafafa"/>
            </g>
          </g>
          <g id="Group_7368" data-name="Group 7368">
            <g id="Group_7367" data-name="Group 7367">
              <path id="Path_3062" data-name="Path 3062" d="M1178.668,1431.8l-1.117,10.053h13.614l.7-10.053Z" fill="#e0e0e0"/>
            </g>
          </g>
        </g>
        <path id="Path_3063" data-name="Path 3063" d="M1197.221,1435.46l4.937,9.926-6.066-.069,1.2-10.5" fill="#f5f5f5"/>
      </g>
      <rect id="Rectangle_1311" data-name="Rectangle 1311" width="2.15" height="5.384" transform="translate(1200.089 1447.379)" fill="#e0e0e0"/>
      <rect id="Rectangle_1312" data-name="Rectangle 1312" width="2.15" height="5.384" transform="translate(1168.599 1447.379)" fill="#e0e0e0"/>
      <rect id="Rectangle_1313" data-name="Rectangle 1313" width="42" height="2.273" transform="translate(1164.176 1445.421)" fill="#e0e0e0"/>
    </g>
    <g id="Group_7372" data-name="Group 7372">
      <path id="Path_3064" data-name="Path 3064" d="M1199.6,1558.8c0,.049-31.61.09-70.594.09s-70.6-.041-70.6-.09,31.6-.09,70.6-.09S1199.6,1558.751,1199.6,1558.8Z" fill="#263238"/>
    </g>
    <g id="Group_7390" data-name="Group 7390">
      <g id="Group_7374" data-name="Group 7374">
        <g id="Group_7373" data-name="Group 7373">
          <path id="Path_3065" data-name="Path 3065" d="M1159.531,1508.951c-5.938-4.149-7.286-11.85-7.051-18.772a7.527,7.527,0,0,1,.462-3.388,2.353,2.353,0,0,1,2.867-1.22c.858.4,1.232,1.4,1.712,2.228a6.761,6.761,0,0,0,2.71,2.588,2.574,2.574,0,0,0,2.373.215c1-.55,1.114-1.927,1.107-3.076q-.021-3.213-.04-6.426a10.7,10.7,0,0,1,.346-3.413,3.565,3.565,0,0,1,2.241-2.41,2.161,2.161,0,0,1,2.676,1.449,10.638,10.638,0,0,1,.033,1.431,1.207,1.207,0,0,0,.707,1.137,1.389,1.389,0,0,0,1.262-.527,15.267,15.267,0,0,0,2.743-4.142,21.277,21.277,0,0,1,2.559-4.274,6.22,6.22,0,0,1,4.211-2.362,3.721,3.721,0,0,1,3.815,2.539c.417,1.62-.528,3.264-1.556,4.575a25.685,25.685,0,0,1-5.341,5.092,2.113,2.113,0,0,0-.894.96c-.25.766.476,1.527,1.233,1.779a13.21,13.21,0,0,0,2.682.3,2.586,2.586,0,0,1,2.206,1.348c.471,1.174-.512,2.406-1.478,3.212a21.964,21.964,0,0,1-6.5,3.754,7.429,7.429,0,0,0-2.417,1.175,2.126,2.126,0,0,0-.681,2.436,2.164,2.164,0,0,0,2.355.905,15.318,15.318,0,0,0,2.521-.963c1.58-.6,3.619-.487,4.631.878a3.637,3.637,0,0,1,.387,3.216,8.392,8.392,0,0,1-1.742,2.84,22.091,22.091,0,0,1-9.436,6.631c-3.663,1.27-7.058,1.614-10.7.283" fill="#e8505b"/>
        </g>
      </g>
      <g id="Group_7377" data-name="Group 7377">
        <g id="Group_7376" data-name="Group 7376">
          <g id="Group_7375" data-name="Group 7375">
            <path id="Path_3066" data-name="Path 3066" d="M1182.6,1468.951a.777.777,0,0,1-.111.11l-.342.3c-.3.266-.744.659-1.3,1.179a43.268,43.268,0,0,0-4.39,4.738c-.855,1.066-1.744,2.272-2.674,3.583s-1.912,2.725-2.89,4.246a52.324,52.324,0,0,0-2.835,4.912c-.443.879-.838,1.8-1.241,2.735s-.807,1.888-1.219,2.85a105.711,105.711,0,0,0-4.1,11.059,51.393,51.393,0,0,0-1.915,9.43,37.614,37.614,0,0,0-.108,6.491c.06.765.119,1.359.173,1.76.022.192.04.343.053.457a.93.93,0,0,1,.011.157.815.815,0,0,1-.033-.154c-.018-.113-.042-.263-.074-.454-.067-.4-.139-.993-.212-1.759a35.941,35.941,0,0,1,.041-6.512,50.449,50.449,0,0,1,1.878-9.472,102.931,102.931,0,0,1,4.088-11.087l1.22-2.851c.4-.935.8-1.862,1.249-2.745a51.446,51.446,0,0,1,2.858-4.924c.985-1.523,1.975-2.932,2.91-4.242s1.836-2.513,2.7-3.575a40.639,40.639,0,0,1,4.45-4.7c.567-.512,1.019-.9,1.33-1.151l.355-.288A.949.949,0,0,1,1182.6,1468.951Z" fill="#263238"/>
          </g>
        </g>
      </g>
      <g id="Group_7380" data-name="Group 7380">
        <g id="Group_7379" data-name="Group 7379">
          <g id="Group_7378" data-name="Group 7378">
            <path id="Path_3067" data-name="Path 3067" d="M1167.936,1487.92a2.371,2.371,0,0,1-.112-.49c-.061-.318-.133-.78-.214-1.352-.162-1.144-.333-2.732-.514-4.484s-.374-3.333-.553-4.471c-.088-.57-.164-1.03-.221-1.348a.252.252,0,1,1,.08-.017c.082.313.181.771.288,1.339.218,1.136.435,2.721.616,4.475.175,1.728.332,3.292.453,4.487.057.539.107.994.146,1.359A2.311,2.311,0,0,1,1167.936,1487.92Z" fill="#263238"/>
          </g>
        </g>
      </g>
      <g id="Group_7383" data-name="Group 7383">
        <g id="Group_7382" data-name="Group 7382">
          <g id="Group_7381" data-name="Group 7381">
            <path id="Path_3068" data-name="Path 3068" d="M1182.711,1485.159a3.235,3.235,0,0,1-.589.07c-.379.034-.928.08-1.6.158-1.353.146-3.216.414-5.257.8s-3.875.818-5.191,1.168c-.66.17-1.19.322-1.558.425a.3.3,0,1,1-.024-.08c.36-.127.886-.3,1.542-.491,1.31-.388,3.144-.843,5.192-1.233a52.065,52.065,0,0,1,5.282-.738c.68-.059,1.232-.083,1.614-.091A3.07,3.07,0,0,1,1182.711,1485.159Z" fill="#263238"/>
          </g>
        </g>
      </g>
      <g id="Group_7386" data-name="Group 7386">
        <g id="Group_7385" data-name="Group 7385">
          <g id="Group_7384" data-name="Group 7384">
            <path id="Path_3069" data-name="Path 3069" d="M1161.5,1504.339a.731.731,0,0,1-.1-.18l-.252-.534c-.218-.466-.515-1.147-.87-1.993-.713-1.693-1.624-4.062-2.594-6.69s-1.859-5-2.535-6.708l-.808-2.018c-.086-.22-.158-.4-.216-.55a.746.746,0,0,1-.062-.2.823.823,0,0,1,.1.181c.068.144.152.32.252.534.218.465.515,1.146.871,1.993.713,1.693,1.624,4.062,2.594,6.691s1.858,5,2.535,6.707c.332.829.6,1.511.807,2.017.086.22.158.4.216.55A.8.8,0,0,1,1161.5,1504.339Z" fill="#263238"/>
          </g>
        </g>
      </g>
      <g id="Group_7389" data-name="Group 7389">
        <g id="Group_7388" data-name="Group 7388">
          <g id="Group_7387" data-name="Group 7387">
            <path id="Path_3070" data-name="Path 3070" d="M1181.134,1498.011a.785.785,0,0,1-.2.081l-.57.191-2.1.681c-1.775.576-4.218,1.4-6.916,2.312s-5.151,1.716-6.939,2.255c-.894.27-1.619.481-2.123.616l-.581.153a.765.765,0,0,1-.207.039.814.814,0,0,1,.195-.08l.57-.191,2.1-.682c1.775-.575,4.218-1.4,6.917-2.312s5.15-1.715,6.938-2.255c.894-.269,1.619-.48,2.124-.616l.581-.153A.815.815,0,0,1,1181.134,1498.011Z" fill="#263238"/>
          </g>
        </g>
      </g>
    </g>
    <g id="Group_7394" data-name="Group 7394">
      <path id="Path_3071" data-name="Path 3071" d="M1164.264,1507.525a3.413,3.413,0,0,0,2.961-1.724,4.53,4.53,0,0,0,.36-3.482,1.907,1.907,0,0,0-.937-1.307,1.456,1.456,0,0,0-1.453.271,2.955,2.955,0,0,0-.84,1.287,5.869,5.869,0,0,0-.091,4.955" fill="#455a64"/>
      <path id="Path_3072" data-name="Path 3072" d="M1163.624,1510.725a7.979,7.979,0,0,1,6.6,3.092,1.682,1.682,0,0,1,.392,1.773,1.651,1.651,0,0,1-1.745.5,6.819,6.819,0,0,1-5.409-5.29" fill="#455a64"/>
      <path id="Path_3073" data-name="Path 3073" d="M1179.037,1506.268a4,4,0,0,0-2.712-1.565,7.057,7.057,0,0,0-3.171.361,12.459,12.459,0,0,0-5.151,3.765c1.831,1.4,4.5,1.27,5.855,1.117,2.136-.241,5.85-1.974,5.179-3.678" fill="#455a64"/>
      <g id="Group_7391" data-name="Group 7391">
        <path id="Path_3074" data-name="Path 3074" d="M1158.939,1510.905a8.191,8.191,0,0,0,1-.3,14.639,14.639,0,0,0,3.365-2.014,7.349,7.349,0,0,0,2.275-3.185,4.8,4.8,0,0,0,.248-1.169,1.341,1.341,0,0,0-.006-.438,10.148,10.148,0,0,1-.4,1.552,7.7,7.7,0,0,1-2.27,3.062,16.982,16.982,0,0,1-3.286,2.044" fill="#263238"/>
      </g>
      <g id="Group_7392" data-name="Group 7392">
        <path id="Path_3075" data-name="Path 3075" d="M1158.905,1510.913l1.912-.422c1.614-.361,3.844-.853,6.315-1.365s4.712-.943,6.337-1.253l1.923-.371a4.227,4.227,0,0,0,.7-.164,4.273,4.273,0,0,0-.716.075c-.459.062-1.121.164-1.937.3-1.633.268-3.883.676-6.355,1.187s-4.7,1.031-6.3,1.432c-.8.2-1.451.37-1.9.495" fill="#263238"/>
      </g>
      <g id="Group_7393" data-name="Group 7393">
        <path id="Path_3076" data-name="Path 3076" d="M1168.249,1513.945a1.441,1.441,0,0,0-.229-.35,3.421,3.421,0,0,0-.311-.379,5.531,5.531,0,0,0-.453-.467,8.5,8.5,0,0,0-1.342-1.033,8.97,8.97,0,0,0-3.913-1.31,8.481,8.481,0,0,0-1.694.017,5.59,5.59,0,0,0-.642.1,3.352,3.352,0,0,0-.477.115c-.258.076-.309.17-.3.186a13.376,13.376,0,0,1,1.439-.238,9.32,9.32,0,0,1,1.658.033,9.473,9.473,0,0,1,3.822,1.279,9.452,9.452,0,0,1,1.344.972C1167.859,1513.495,1168.214,1513.973,1168.249,1513.945Z" fill="#263238"/>
      </g>
    </g>
    <g id="Group_7425" data-name="Group 7425">
      <g id="Group_7423" data-name="Group 7423">
        <g id="Group_7398" data-name="Group 7398">
          <g id="Group_7397" data-name="Group 7397">
            <g id="Group_7395" data-name="Group 7395">
              <path id="Path_3077" data-name="Path 3077" d="M1152.5,1529.84l-38.394-.178a8.363,8.363,0,0,1-8.325-8.4l.407-96.257a8.363,8.363,0,0,1,8.4-8.328l38.4.177a8.364,8.364,0,0,1,8.324,8.4l-.407,96.257A8.363,8.363,0,0,1,1152.5,1529.84Z" fill="#263238"/>
            </g>
            <g id="Group_7396" data-name="Group 7396">
              <path id="Path_3078" data-name="Path 3078" d="M1152.927,1420.178l-7.444-.034a1.849,1.849,0,0,0-1.816,1.881l-.006,1.351a1.849,1.849,0,0,1-1.815,1.881l-14.51-.067a1.851,1.851,0,0,1-1.8-1.9l.006-1.35a1.851,1.851,0,0,0-1.8-1.9l-2.618-.013-6.515-.03a5.859,5.859,0,0,0-5.885,5.833l-.4,93.953a5.857,5.857,0,0,0,5.83,5.883l38.318.177a5.858,5.858,0,0,0,5.885-5.833l.4-93.953A5.857,5.857,0,0,0,1152.927,1420.178Z" fill="#fafafa"/>
            </g>
          </g>
        </g>
        <g id="Group_7399" data-name="Group 7399">
          <rect id="Rectangle_1314" data-name="Rectangle 1314" width="9.886" height="1.814" transform="translate(1129.212 1431.724) rotate(0.264)" fill="#455a64"/>
        </g>
        <g id="Group_7403" data-name="Group 7403">
          <g id="Group_7400" data-name="Group 7400">
            <path id="Path_3079" data-name="Path 3079" d="M1117.7,1446.609c.15.018.233.02.232.033,0-.012.076-.015.217-.031Z" fill="#455a64"/>
            <path id="Path_3080" data-name="Path 3080" d="M1120.411,1441.631a2.911,2.911,0,0,0-.656-.65,3.073,3.073,0,0,0-3.643,0,3.089,3.089,0,0,0-1.078,1.43,3.1,3.1,0,0,0,.428,2.933c.038.05.078.093.117.14a2.218,2.218,0,0,1,1.864-1.548,1.49,1.49,0,0,1-.891-1.392,1.4,1.4,0,1,1,2.8.013,1.491,1.491,0,0,1-.888,1.379,2.182,2.182,0,0,1,1.832,1.543c.037-.045.076-.087.112-.136a3.091,3.091,0,0,0,.571-1.309,3.126,3.126,0,0,0-.142-1.623A2.915,2.915,0,0,0,1120.411,1441.631Z" fill="#fafafa"/>
            <path id="Path_3081" data-name="Path 3081" d="M1121.006,1442.348a3.273,3.273,0,0,0-1.135-1.525,3.253,3.253,0,0,0-3.875,0,3.053,3.053,0,0,0-.694.695,3.093,3.093,0,0,0-.442.83,3.267,3.267,0,0,0-.132,1.717,3.206,3.206,0,0,0,.622,1.364,3.16,3.16,0,0,0,1.8,1.151,2.534,2.534,0,0,0,.582.072.778.778,0,0,0,.2-.01c0-.013-.082-.015-.232-.033l.449,0c-.141.016-.218.019-.217.031a.779.779,0,0,0,.2.01,2.522,2.522,0,0,0,.582-.072,3.165,3.165,0,0,0,1.8-1.151,3.205,3.205,0,0,0,.621-1.364A3.256,3.256,0,0,0,1121.006,1442.348Zm-.031,1.686a3.091,3.091,0,0,1-.571,1.309c-.036.049-.075.091-.112.136a2.182,2.182,0,0,0-1.832-1.543,1.491,1.491,0,0,0,.888-1.379,1.4,1.4,0,1,0-2.8-.013,1.49,1.49,0,0,0,.891,1.392,2.218,2.218,0,0,0-1.864,1.548c-.039-.047-.079-.09-.117-.14a3.1,3.1,0,0,1-.428-2.933,3.089,3.089,0,0,1,1.078-1.43,3.073,3.073,0,0,1,3.643,0,3.089,3.089,0,0,1,1.078,1.43A3.126,3.126,0,0,1,1120.975,1444.034Z" fill="#455a64"/>
          </g>
          <g id="Group_7402" data-name="Group 7402">
            <g id="Group_7401" data-name="Group 7401">
              <path id="Path_3082" data-name="Path 3082" d="M1155.129,1449.51c0-.009.1,0,.285-.039a1.5,1.5,0,0,0,.733-.386,1.524,1.524,0,0,0,.464-1.23q0-.82-.01-1.883c0-1.418-.01-3.151-.017-5.161q0-.755,0-1.561a1.464,1.464,0,0,0-.72-1.338,3.438,3.438,0,0,0-1.689-.2l-1.854,0-39.58.029a1.42,1.42,0,0,0-1.154.6,1.4,1.4,0,0,0-.245.618c-.027.215-.011.468-.015.7q0,1.433,0,2.844,0,2.82,0,5.554a1.405,1.405,0,0,0,.584,1.082,1.36,1.36,0,0,0,.576.245,4.346,4.346,0,0,0,.654.024h2.657l5.143,0,17.8.022,12,.032,3.262.018.848.01c.191,0,.289.011.289.011s-.1.006-.289.01l-.848.01-3.262.018-12,.032-17.8.022-5.143,0h-2.657a4.353,4.353,0,0,1-.688-.026,1.553,1.553,0,0,1-.656-.278,1.6,1.6,0,0,1-.666-1.231q0-2.736-.005-5.563v-2.844a6.936,6.936,0,0,1,.017-.729,1.592,1.592,0,0,1,.28-.706,1.618,1.618,0,0,1,1.317-.681l39.58.029,1.854,0h.892a1.61,1.61,0,0,1,.862.22,1.589,1.589,0,0,1,.774,1.448q0,.805,0,1.561c-.006,2.01-.012,3.743-.017,5.161q0,1.062-.009,1.883a1.57,1.57,0,0,1-.495,1.26,1.5,1.5,0,0,1-.757.377A1.109,1.109,0,0,1,1155.129,1449.51Z" fill="#455a64"/>
            </g>
            <rect id="Rectangle_1315" data-name="Rectangle 1315" width="11.18" height="0.839" transform="translate(1124.067 1440.731)" fill="#455a64"/>
            <rect id="Rectangle_1316" data-name="Rectangle 1316" width="19.589" height="0.839" transform="translate(1124.067 1445.47)" fill="#455a64"/>
            <rect id="Rectangle_1317" data-name="Rectangle 1317" width="28.388" height="0.839" transform="translate(1124.067 1443.043)" fill="#455a64"/>
          </g>
        </g>
        <g id="Group_7407" data-name="Group 7407">
          <g id="Group_7404" data-name="Group 7404">
            <path id="Path_3083" data-name="Path 3083" d="M1117.7,1476.273c.15.019.233.021.232.034,0-.012.076-.015.217-.031Z" fill="#455a64"/>
            <path id="Path_3084" data-name="Path 3084" d="M1120.411,1471.3a2.911,2.911,0,0,0-.656-.65,3.073,3.073,0,0,0-3.643,0,3.089,3.089,0,0,0-1.078,1.43,3.1,3.1,0,0,0,.428,2.932c.038.051.078.094.117.141a2.22,2.22,0,0,1,1.864-1.549,1.488,1.488,0,0,1-.891-1.391,1.4,1.4,0,1,1,2.8.012,1.489,1.489,0,0,1-.888,1.379,2.183,2.183,0,0,1,1.832,1.544c.037-.045.076-.087.112-.136a3.091,3.091,0,0,0,.571-1.309,3.125,3.125,0,0,0-.142-1.623A2.9,2.9,0,0,0,1120.411,1471.3Z" fill="#fafafa"/>
            <path id="Path_3085" data-name="Path 3085" d="M1121.006,1472.013a3.273,3.273,0,0,0-1.135-1.525,3.253,3.253,0,0,0-3.875,0,3.066,3.066,0,0,0-.694.694,3.114,3.114,0,0,0-.442.831,3.268,3.268,0,0,0-.132,1.717,3.207,3.207,0,0,0,.622,1.364,3.16,3.16,0,0,0,1.8,1.151,2.541,2.541,0,0,0,.582.072.785.785,0,0,0,.2-.01c0-.013-.082-.015-.232-.034l.449,0c-.141.016-.218.019-.217.031a.786.786,0,0,0,.2.01,2.529,2.529,0,0,0,.582-.072,3.165,3.165,0,0,0,1.8-1.151,3.2,3.2,0,0,0,.621-1.365A3.253,3.253,0,0,0,1121.006,1472.013Zm-.031,1.686a3.091,3.091,0,0,1-.571,1.309c-.036.049-.075.091-.112.136a2.183,2.183,0,0,0-1.832-1.544,1.489,1.489,0,0,0,.888-1.379,1.4,1.4,0,1,0-2.8-.012,1.488,1.488,0,0,0,.891,1.391,2.22,2.22,0,0,0-1.864,1.549c-.039-.047-.079-.09-.117-.141a3.1,3.1,0,0,1-.428-2.932,3.089,3.089,0,0,1,1.078-1.43,3.073,3.073,0,0,1,3.643,0,3.089,3.089,0,0,1,1.078,1.43A3.125,3.125,0,0,1,1120.975,1473.7Z" fill="#455a64"/>
          </g>
          <g id="Group_7406" data-name="Group 7406">
            <g id="Group_7405" data-name="Group 7405">
              <path id="Path_3086" data-name="Path 3086" d="M1155.129,1479.174c0-.008.1,0,.285-.038a1.5,1.5,0,0,0,.733-.386,1.524,1.524,0,0,0,.464-1.23c0-.547-.006-1.176-.01-1.883,0-1.418-.01-3.151-.017-5.161q0-.754,0-1.561a1.464,1.464,0,0,0-.72-1.338,3.436,3.436,0,0,0-1.689-.2l-1.854,0-39.58.029a1.421,1.421,0,0,0-1.154.6,1.4,1.4,0,0,0-.245.618c-.027.215-.011.467-.015.7q0,1.433,0,2.844,0,2.82,0,5.554a1.4,1.4,0,0,0,.584,1.082,1.358,1.358,0,0,0,.576.245,4.365,4.365,0,0,0,.654.023l2.657,0,5.143,0,17.8.022,12,.031,3.262.019.848.01c.191,0,.289.01.289.01s-.1.007-.289.011l-.848.01-3.262.018-12,.032-17.8.022-5.143,0h-2.657a4.368,4.368,0,0,1-.688-.026,1.555,1.555,0,0,1-.656-.278,1.6,1.6,0,0,1-.666-1.231q0-2.736-.005-5.563v-2.844a6.963,6.963,0,0,1,.017-.73,1.592,1.592,0,0,1,.28-.7,1.615,1.615,0,0,1,1.317-.681l39.58.029,1.854,0h.892a1.583,1.583,0,0,1,1.636,1.668q0,.805,0,1.561c-.006,2.01-.012,3.743-.017,5.161,0,.707-.006,1.336-.009,1.883a1.57,1.57,0,0,1-.495,1.26,1.491,1.491,0,0,1-.757.376A1.051,1.051,0,0,1,1155.129,1479.174Z" fill="#455a64"/>
            </g>
            <rect id="Rectangle_1318" data-name="Rectangle 1318" width="11.18" height="0.839" transform="translate(1124.067 1470.396)" fill="#455a64"/>
            <rect id="Rectangle_1319" data-name="Rectangle 1319" width="19.589" height="0.839" transform="translate(1124.067 1475.135)" fill="#455a64"/>
            <rect id="Rectangle_1320" data-name="Rectangle 1320" width="28.388" height="0.839" transform="translate(1124.067 1472.708)" fill="#455a64"/>
          </g>
        </g>
        <g id="Group_7411" data-name="Group 7411">
          <g id="Group_7410" data-name="Group 7410">
            <rect id="Rectangle_1321" data-name="Rectangle 1321" width="11.862" height="45.417" rx="1.354" transform="translate(1111.308 1463.966) rotate(-89.836)" fill="#e8505b"/>
            <rect id="Rectangle_1322" data-name="Rectangle 1322" width="11.18" height="0.839" transform="translate(1124.176 1455.225) rotate(0.164)" fill="#fafafa"/>
            <rect id="Rectangle_1323" data-name="Rectangle 1323" width="19.589" height="0.839" transform="translate(1124.163 1459.963) rotate(0.164)" fill="#fafafa"/>
            <rect id="Rectangle_1324" data-name="Rectangle 1324" width="28.388" height="0.839" transform="translate(1124.17 1457.536) rotate(0.164)" fill="#fafafa"/>
            <g id="Group_7409" data-name="Group 7409">
              <path id="Path_3087" data-name="Path 3087" d="M1118.572,1458.4a1.49,1.49,0,0,0,.858-1.4,1.4,1.4,0,1,0-2.8.047,1.489,1.489,0,0,0,.92,1.373,2.237,2.237,0,0,0-1.858,1.666,3.165,3.165,0,0,0,1.962,1l.861-.015a3.167,3.167,0,0,0,1.947-1.095A2.2,2.2,0,0,0,1118.572,1458.4Z" fill="#fafafa"/>
              <g id="Group_7408" data-name="Group 7408">
                <path id="Path_3088" data-name="Path 3088" d="M1118.1,1461.117c0-.022.283-.013.765-.15a3.171,3.171,0,0,0,1.684-1.2,3.1,3.1,0,0,0,.368-2.949,3.1,3.1,0,0,0-1.112-1.411,3.081,3.081,0,0,0-3.653.078,3.114,3.114,0,0,0-1.051,1.458,3.109,3.109,0,0,0,.495,2.93,3.166,3.166,0,0,0,1.734,1.124,7.564,7.564,0,0,0,.77.117,2.4,2.4,0,0,1-.786-.049,3.212,3.212,0,0,1-2.465-2.461,3.258,3.258,0,0,1,.1-1.714,3.252,3.252,0,0,1,1.1-1.544,3.243,3.243,0,0,1,3.861-.083,3.243,3.243,0,0,1,1.165,1.495,3.25,3.25,0,0,1,.169,1.709,3.209,3.209,0,0,1-2.357,2.565A2.4,2.4,0,0,1,1118.1,1461.117Z" fill="#fafafa"/>
              </g>
            </g>
          </g>
        </g>
        <g id="Group_7412" data-name="Group 7412">
          <path id="Path_3089" data-name="Path 3089" d="M1131.241,1516.852a.8.8,0,1,1-.788-.683A.741.741,0,0,1,1131.241,1516.852Z" fill="#455a64"/>
        </g>
        <g id="Group_7413" data-name="Group 7413">
          <path id="Path_3090" data-name="Path 3090" d="M1133.691,1516.863a.8.8,0,1,1-.788-.683A.741.741,0,0,1,1133.691,1516.863Z" fill="#455a64"/>
        </g>
        <g id="Group_7414" data-name="Group 7414">
          <path id="Path_3091" data-name="Path 3091" d="M1136.14,1516.874a.8.8,0,1,1-.787-.683A.74.74,0,0,1,1136.14,1516.874Z" fill="#455a64"/>
        </g>
        <g id="Group_7418" data-name="Group 7418">
          <g id="Group_7415" data-name="Group 7415">
            <path id="Path_3092" data-name="Path 3092" d="M1117.7,1491.659a.923.923,0,0,1,.232.033c0-.012.076-.014.217-.031Z" fill="#455a64"/>
            <path id="Path_3093" data-name="Path 3093" d="M1120.411,1486.682a2.9,2.9,0,0,0-.656-.651,3.073,3.073,0,0,0-3.643,0,3.089,3.089,0,0,0-1.078,1.43,3.1,3.1,0,0,0,.428,2.933c.038.05.078.094.117.14a2.218,2.218,0,0,1,1.864-1.548,1.49,1.49,0,0,1-.891-1.392,1.4,1.4,0,1,1,2.8.013,1.491,1.491,0,0,1-.888,1.379,2.182,2.182,0,0,1,1.832,1.543c.037-.045.076-.087.112-.136a3.09,3.09,0,0,0,.571-1.309,3.125,3.125,0,0,0-.142-1.623A2.893,2.893,0,0,0,1120.411,1486.682Z" fill="#fafafa"/>
            <path id="Path_3094" data-name="Path 3094" d="M1121.006,1487.4a3.04,3.04,0,0,0-.442-.83,3.085,3.085,0,0,0-.693-.695,3.253,3.253,0,0,0-3.875,0,3.05,3.05,0,0,0-.694.695,3.094,3.094,0,0,0-.442.83,3.268,3.268,0,0,0-.132,1.717,3.207,3.207,0,0,0,.622,1.364,3.163,3.163,0,0,0,1.8,1.152,2.528,2.528,0,0,0,.582.071.785.785,0,0,0,.2-.01.923.923,0,0,0-.232-.033l.449,0c-.141.017-.218.019-.217.031a.786.786,0,0,0,.2.01,2.517,2.517,0,0,0,.582-.071,3.173,3.173,0,0,0,1.8-1.152,3.206,3.206,0,0,0,.621-1.364A3.256,3.256,0,0,0,1121.006,1487.4Zm-.031,1.686a3.09,3.09,0,0,1-.571,1.309c-.036.049-.075.091-.112.136a2.182,2.182,0,0,0-1.832-1.543,1.491,1.491,0,0,0,.888-1.379,1.4,1.4,0,1,0-2.8-.013,1.49,1.49,0,0,0,.891,1.392,2.218,2.218,0,0,0-1.864,1.548c-.039-.046-.079-.09-.117-.14a3.1,3.1,0,0,1-.428-2.933,3.089,3.089,0,0,1,1.078-1.43,3.073,3.073,0,0,1,3.643,0,3.1,3.1,0,0,1,1.078,1.43A3.125,3.125,0,0,1,1120.975,1489.084Z" fill="#455a64"/>
          </g>
          <g id="Group_7417" data-name="Group 7417">
            <g id="Group_7416" data-name="Group 7416">
              <path id="Path_3095" data-name="Path 3095" d="M1155.129,1494.56c0-.009.1,0,.285-.038a1.508,1.508,0,0,0,.733-.387,1.524,1.524,0,0,0,.464-1.23c0-.546-.006-1.175-.01-1.883,0-1.418-.01-3.151-.017-5.161q0-.754,0-1.561a1.464,1.464,0,0,0-.72-1.338,3.436,3.436,0,0,0-1.689-.2l-1.854,0-39.58.029a1.421,1.421,0,0,0-1.154.6,1.389,1.389,0,0,0-.245.617c-.027.215-.011.468-.015.7q0,1.431,0,2.843,0,2.821,0,5.555a1.4,1.4,0,0,0,.584,1.081,1.358,1.358,0,0,0,.576.245,4.361,4.361,0,0,0,.654.024h2.657l5.143,0,17.8.022,12,.032,3.262.018.848.01c.191,0,.289.011.289.011s-.1.007-.289.01l-.848.01-3.262.019-12,.031-17.8.022-5.143,0-2.657,0a4.372,4.372,0,0,1-.688-.027,1.555,1.555,0,0,1-.656-.278,1.6,1.6,0,0,1-.666-1.231q0-2.734-.005-5.563v-2.843a6.951,6.951,0,0,1,.017-.73,1.591,1.591,0,0,1,.28-.706,1.618,1.618,0,0,1,1.317-.681l39.58.029,1.854,0,.892,0a1.581,1.581,0,0,1,1.636,1.667q0,.805,0,1.561c-.006,2.01-.012,3.743-.017,5.161,0,.708-.006,1.337-.009,1.883a1.57,1.57,0,0,1-.495,1.26,1.494,1.494,0,0,1-.757.377A1.109,1.109,0,0,1,1155.129,1494.56Z" fill="#455a64"/>
            </g>
            <rect id="Rectangle_1325" data-name="Rectangle 1325" width="11.18" height="0.839" transform="translate(1124.067 1485.782)" fill="#455a64"/>
            <rect id="Rectangle_1326" data-name="Rectangle 1326" width="19.589" height="0.839" transform="translate(1124.067 1490.52)" fill="#455a64"/>
            <rect id="Rectangle_1327" data-name="Rectangle 1327" width="28.388" height="0.839" transform="translate(1124.067 1488.093)" fill="#455a64"/>
          </g>
        </g>
        <g id="Group_7422" data-name="Group 7422">
          <g id="Group_7419" data-name="Group 7419">
            <path id="Path_3096" data-name="Path 3096" d="M1117.7,1506.737c.15.019.233.021.232.034,0-.012.076-.015.217-.032Z" fill="#455a64"/>
            <path id="Path_3097" data-name="Path 3097" d="M1120.411,1501.76a2.911,2.911,0,0,0-.656-.65,3.075,3.075,0,0,0-3.643,0,2.913,2.913,0,0,0-.656.651,2.872,2.872,0,0,0-.422.78,3.1,3.1,0,0,0,.428,2.932c.038.05.078.094.117.14a2.221,2.221,0,0,1,1.864-1.548,1.488,1.488,0,0,1-.891-1.392,1.4,1.4,0,1,1,2.8.013,1.49,1.49,0,0,1-.888,1.379,2.183,2.183,0,0,1,1.832,1.544c.037-.045.076-.088.112-.136a3.1,3.1,0,0,0,.429-2.932A2.9,2.9,0,0,0,1120.411,1501.76Z" fill="#fafafa"/>
            <path id="Path_3098" data-name="Path 3098" d="M1121.006,1502.477a3.26,3.26,0,0,0-1.135-1.525,3.251,3.251,0,0,0-3.875,0,3.07,3.07,0,0,0-.694.695,3.113,3.113,0,0,0-.442.831,3.264,3.264,0,0,0-.132,1.716,3.206,3.206,0,0,0,.622,1.365,3.16,3.16,0,0,0,1.8,1.151,2.541,2.541,0,0,0,.582.072.785.785,0,0,0,.2-.01c0-.013-.082-.015-.232-.034l.449,0c-.141.017-.218.02-.217.032a.786.786,0,0,0,.2.01,2.529,2.529,0,0,0,.582-.072,3.165,3.165,0,0,0,1.8-1.151,3.2,3.2,0,0,0,.621-1.365A3.253,3.253,0,0,0,1121.006,1502.477Zm-.031,1.686a3.1,3.1,0,0,1-.571,1.309c-.036.048-.075.091-.112.136a2.183,2.183,0,0,0-1.832-1.544,1.49,1.49,0,0,0,.888-1.379,1.4,1.4,0,1,0-2.8-.013,1.488,1.488,0,0,0,.891,1.392,2.221,2.221,0,0,0-1.864,1.548c-.039-.046-.079-.09-.117-.14a3.1,3.1,0,0,1-.428-2.932,2.872,2.872,0,0,1,.422-.78,2.913,2.913,0,0,1,.656-.651,3.075,3.075,0,0,1,3.643,0,3.089,3.089,0,0,1,1.078,1.43A3.125,3.125,0,0,1,1120.975,1504.163Z" fill="#455a64"/>
          </g>
          <g id="Group_7421" data-name="Group 7421">
            <g id="Group_7420" data-name="Group 7420">
              <path id="Path_3099" data-name="Path 3099" d="M1155.129,1509.638c0-.008.1,0,.285-.038a1.5,1.5,0,0,0,.733-.386,1.526,1.526,0,0,0,.464-1.231c0-.546-.006-1.175-.01-1.882,0-1.418-.01-3.151-.017-5.162q0-.754,0-1.56a1.463,1.463,0,0,0-.72-1.338,3.436,3.436,0,0,0-1.689-.2l-1.854,0-39.58.03a1.421,1.421,0,0,0-1.154.6,1.393,1.393,0,0,0-.245.618c-.027.215-.011.467-.015.7q0,1.431,0,2.844,0,2.82,0,5.554a1.4,1.4,0,0,0,.584,1.081,1.372,1.372,0,0,0,.576.246,4.365,4.365,0,0,0,.654.023l2.657,0,5.143,0,17.8.021,12,.032,3.262.019.848.01c.191,0,.289.01.289.01s-.1.007-.289.01l-.848.01-3.262.019-12,.032-17.8.021-5.143,0h-2.657a4.368,4.368,0,0,1-.688-.026,1.567,1.567,0,0,1-.656-.278,1.6,1.6,0,0,1-.666-1.231q0-2.736-.005-5.563v-2.844a6.963,6.963,0,0,1,.017-.73,1.591,1.591,0,0,1,.28-.706,1.617,1.617,0,0,1,1.317-.68l39.58.029,1.854,0,.892,0a1.583,1.583,0,0,1,1.636,1.668q0,.805,0,1.56c-.006,2.011-.012,3.744-.017,5.162,0,.707-.006,1.336-.009,1.882a1.567,1.567,0,0,1-.495,1.26,1.486,1.486,0,0,1-.757.377A1.051,1.051,0,0,1,1155.129,1509.638Z" fill="#455a64"/>
            </g>
            <rect id="Rectangle_1328" data-name="Rectangle 1328" width="11.18" height="0.839" transform="translate(1124.067 1500.86)" fill="#455a64"/>
            <rect id="Rectangle_1329" data-name="Rectangle 1329" width="19.589" height="0.839" transform="translate(1124.067 1505.599)" fill="#455a64"/>
            <rect id="Rectangle_1330" data-name="Rectangle 1330" width="28.388" height="0.839" transform="translate(1124.067 1503.172)" fill="#455a64"/>
          </g>
        </g>
      </g>
      <g id="Group_7424" data-name="Group 7424">
        <circle id="Ellipse_500" data-name="Ellipse 500" cx="2.294" cy="2.294" r="2.294" transform="translate(1152.969 1450.791)" fill="#263238"/>
        <path id="Path_3100" data-name="Path 3100" d="M1154.14,1452.9l.963.847,1.284-1.324" fill="none" stroke="#fafafa" stroke-linecap="round" stroke-linejoin="round" stroke-width="1"/>
      </g>
    </g>
    <g id="Group_7521" data-name="Group 7521">
      <g id="Group_7428" data-name="Group 7428">
        <path id="Path_3101" data-name="Path 3101" d="M1091.722,1555.172l-.563,3.262,5.026.366.018-3.205Z" fill="#e8505b"/>
        <g id="Group_7426" data-name="Group 7426">
          <path id="Path_3102" data-name="Path 3102" d="M1093.985,1555.217a14.754,14.754,0,0,1-.33,2.962,14.754,14.754,0,0,1,.33-2.962Z" fill="#263238"/>
        </g>
        <g id="Group_7427" data-name="Group 7427">
          <path id="Path_3103" data-name="Path 3103" d="M1096.187,1558.449a3.97,3.97,0,0,1-.728-.055l-1.747-.194c-.682-.078-1.3-.162-1.744-.238a3.149,3.149,0,0,1-.713-.16,3.862,3.862,0,0,1,.728.055l1.747.194c.682.078,1.3.161,1.744.237A3.179,3.179,0,0,1,1096.187,1558.449Z" fill="#263238"/>
        </g>
      </g>
      <g id="Group_7482" data-name="Group 7482">
        <g id="Group_7481" data-name="Group 7481">
          <g id="Group_7433" data-name="Group 7433">
            <g id="Group_7430" data-name="Group 7430">
              <g id="Group_7429" data-name="Group 7429">
                <path id="Path_3104" data-name="Path 3104" d="M1109.863,1556.952l.009-2.924-5.476-.052-.059,4.278.34.025c1.51.1,7.686.392,8.7.1C1114.506,1558.044,1109.863,1556.952,1109.863,1556.952Z" fill="#e8505b"/>
              </g>
            </g>
            <g id="Group_7432" data-name="Group 7432" opacity="0.38">
              <g id="Group_7431" data-name="Group 7431">
                <path id="Path_3105" data-name="Path 3105" d="M1106.323,1558.229a1.9,1.9,0,0,0-.687-1.174,1.848,1.848,0,0,0-1.277-.41l-.015,1.53Z"/>
              </g>
            </g>
          </g>
          <g id="Group_7435" data-name="Group 7435" opacity="0.38">
            <g id="Group_7434" data-name="Group 7434">
              <path id="Path_3106" data-name="Path 3106" d="M1112.131,1557.566s1.627.486,1.421.753-6.459.2-9.215-.065l.01-.123,7.293.136S1111.812,1557.577,1112.131,1557.566Z"/>
            </g>
          </g>
          <g id="Group_7438" data-name="Group 7438">
            <g id="Group_7437" data-name="Group 7437">
              <g id="Group_7436" data-name="Group 7436">
                <path id="Path_3107" data-name="Path 3107" d="M1104.261,1558.127a.534.534,0,0,0,.094.011l.271.019.994.053c.841.039,2,.077,3.286.091s2.447,0,3.288-.02l1-.031.27-.013a.584.584,0,0,0,.094-.009.418.418,0,0,0-.094-.005h-.271l-1,.01c-.841.009-2,.014-3.286,0s-2.444-.045-3.285-.072l-.995-.032-.271-.006A.546.546,0,0,0,1104.261,1558.127Z" fill="#263238"/>
              </g>
            </g>
          </g>
          <g id="Group_7441" data-name="Group 7441">
            <g id="Group_7440" data-name="Group 7440">
              <g id="Group_7439" data-name="Group 7439">
                <path id="Path_3108" data-name="Path 3108" d="M1111.638,1558.352a2.235,2.235,0,0,1,.19-.473,2.259,2.259,0,0,1,.344-.378.882.882,0,0,0-.534.851Z" fill="#263238"/>
              </g>
            </g>
          </g>
          <g id="Group_7444" data-name="Group 7444">
            <g id="Group_7443" data-name="Group 7443">
              <g id="Group_7442" data-name="Group 7442">
                <path id="Path_3109" data-name="Path 3109" d="M1110.03,1557.516c.015.01.094-.083.175-.208s.134-.235.119-.245-.094.083-.175.208S1110.015,1557.506,1110.03,1557.516Z" fill="#263238"/>
              </g>
            </g>
          </g>
          <g id="Group_7447" data-name="Group 7447">
            <g id="Group_7446" data-name="Group 7446">
              <g id="Group_7445" data-name="Group 7445">
                <path id="Path_3110" data-name="Path 3110" d="M1109.589,1557.277c.012.014.1-.043.194-.127s.163-.163.151-.177-.1.043-.195.127S1109.577,1557.263,1109.589,1557.277Z" fill="#263238"/>
              </g>
            </g>
          </g>
          <g id="Group_7450" data-name="Group 7450">
            <g id="Group_7449" data-name="Group 7449">
              <g id="Group_7448" data-name="Group 7448">
                <path id="Path_3111" data-name="Path 3111" d="M1109.314,1556.757a1.22,1.22,0,0,0,.572.012,1.255,1.255,0,0,0-.572-.012Z" fill="#263238"/>
              </g>
            </g>
          </g>
          <g id="Group_7453" data-name="Group 7453">
            <g id="Group_7452" data-name="Group 7452">
              <g id="Group_7451" data-name="Group 7451">
                <path id="Path_3112" data-name="Path 3112" d="M1109.221,1556.392a.567.567,0,0,0,.318.1.56.56,0,0,0,.33-.041,1.715,1.715,0,0,0-.324-.025A1.74,1.74,0,0,0,1109.221,1556.392Z" fill="#263238"/>
              </g>
            </g>
          </g>
          <g id="Group_7456" data-name="Group 7456">
            <g id="Group_7455" data-name="Group 7455">
              <g id="Group_7454" data-name="Group 7454">
                <path id="Path_3113" data-name="Path 3113" d="M1110.221,1557.04a1.036,1.036,0,0,0,.352,0,2.02,2.02,0,0,0,.375-.079.966.966,0,0,0,.215-.086.194.194,0,0,0,.089-.108.139.139,0,0,0-.052-.141.652.652,0,0,0-.918.414.223.223,0,0,0-.01.095,1.046,1.046,0,0,1,.164-.3.642.642,0,0,1,.3-.192.545.545,0,0,1,.419.033c.056.042.033.107-.029.144a.976.976,0,0,1-.2.082,2.4,2.4,0,0,1-.363.091C1110.355,1557.03,1110.221,1557.029,1110.221,1557.04Z" fill="#263238"/>
              </g>
            </g>
          </g>
          <g id="Group_7459" data-name="Group 7459">
            <g id="Group_7458" data-name="Group 7458">
              <g id="Group_7457" data-name="Group 7457">
                <path id="Path_3114" data-name="Path 3114" d="M1110.312,1557.058a.35.35,0,0,0,.043-.244.586.586,0,0,0-.094-.258.353.353,0,0,0-.291-.182.14.14,0,0,0-.11.161.39.39,0,0,0,.058.158,1.091,1.091,0,0,0,.164.215.494.494,0,0,0,.2.144c.006-.008-.069-.064-.165-.176a1.194,1.194,0,0,1-.146-.213c-.047-.074-.079-.208.01-.223s.177.081.23.151a.59.59,0,0,1,.1.23A1.288,1.288,0,0,1,1110.312,1557.058Z" fill="#263238"/>
              </g>
            </g>
          </g>
          <g id="Group_7462" data-name="Group 7462">
            <g id="Group_7461" data-name="Group 7461">
              <g id="Group_7460" data-name="Group 7460">
                <path id="Path_3115" data-name="Path 3115" d="M1104.388,1556.63c0,.012.157-.014.4.018a1.714,1.714,0,0,1,1.423,1.158c.082.235.088.393.1.392a.309.309,0,0,0,0-.111,1.443,1.443,0,0,0-.057-.3,1.666,1.666,0,0,0-1.463-1.19,1.5,1.5,0,0,0-.3.005A.311.311,0,0,0,1104.388,1556.63Z" fill="#263238"/>
              </g>
            </g>
          </g>
          <g id="Group_7465" data-name="Group 7465">
            <g id="Group_7464" data-name="Group 7464">
              <g id="Group_7463" data-name="Group 7463">
                <path id="Path_3116" data-name="Path 3116" d="M1104.979,1554.357a9.289,9.289,0,0,0-.059,1.124,9.4,9.4,0,0,0,.008,1.126,19.52,19.52,0,0,0,.051-2.25Z" fill="#263238"/>
              </g>
            </g>
          </g>
          <g id="Group_7468" data-name="Group 7468">
            <g id="Group_7467" data-name="Group 7467">
              <g id="Group_7466" data-name="Group 7466">
                <path id="Path_3117" data-name="Path 3117" d="M1107.018,1557.7a3.046,3.046,0,0,0,.8.088,3.137,3.137,0,0,0,.8-.056c0-.02-.359,0-.8-.011S1107.02,1557.683,1107.018,1557.7Z" fill="#263238"/>
              </g>
            </g>
          </g>
          <g id="Group_7471" data-name="Group 7471">
            <g id="Group_7470" data-name="Group 7470">
              <g id="Group_7469" data-name="Group 7469">
                <path id="Path_3118" data-name="Path 3118" d="M1105.945,1557.69c-.014.013.028.076.064.159s.055.155.074.154.029-.086-.013-.181S1105.956,1557.677,1105.945,1557.69Z" fill="#263238"/>
              </g>
            </g>
          </g>
          <g id="Group_7474" data-name="Group 7474">
            <g id="Group_7473" data-name="Group 7473">
              <g id="Group_7472" data-name="Group 7472">
                <path id="Path_3119" data-name="Path 3119" d="M1105.545,1557.183c-.013.012.022.07.078.128s.112.094.125.082-.021-.07-.077-.129S1105.558,1557.17,1105.545,1557.183Z" fill="#263238"/>
              </g>
            </g>
          </g>
          <g id="Group_7477" data-name="Group 7477">
            <g id="Group_7476" data-name="Group 7476">
              <g id="Group_7475" data-name="Group 7475">
                <path id="Path_3120" data-name="Path 3120" d="M1104.969,1556.947c0,.018.076.018.156.048s.138.072.152.06-.03-.089-.13-.123S1104.963,1556.93,1104.969,1556.947Z" fill="#263238"/>
              </g>
            </g>
          </g>
          <g id="Group_7480" data-name="Group 7480">
            <g id="Group_7479" data-name="Group 7479">
              <g id="Group_7478" data-name="Group 7478">
                <path id="Path_3121" data-name="Path 3121" d="M1104.558,1556.834c-.007.017.024.045.069.064s.088.018.1,0-.025-.045-.07-.063S1104.565,1556.817,1104.558,1556.834Z" fill="#263238"/>
              </g>
            </g>
          </g>
        </g>
      </g>
      <g id="Group_7489" data-name="Group 7489">
        <g id="Group_7483" data-name="Group 7483">
          <path id="Path_3122" data-name="Path 3122" d="M1101.561,1468.1c.042-.858.131-1.827.131-1.827a2.569,2.569,0,0,0,2.25-2.425c.129-2.191,0-7.244,0-7.244l-3.863-1.968-4.25,3.354.644,10.956,3.91.249A1.129,1.129,0,0,0,1101.561,1468.1Z" fill="#ffbe9d"/>
        </g>
        <g id="Group_7485" data-name="Group 7485">
          <g id="Group_7484" data-name="Group 7484">
            <path id="Path_3123" data-name="Path 3123" d="M1101.943,1462.118c.006,0,.006.04-.034.094a.3.3,0,0,1-.244.107c-.246-.011-.483-.284-.57-.616a1.049,1.049,0,0,1-.011-.487.417.417,0,0,1,.231-.33.208.208,0,0,1,.163,0,.183.183,0,0,1,.087.088c.029.065.006.1,0,.1s-.007-.037-.039-.078a.14.14,0,0,0-.182-.038.341.341,0,0,0-.158.274,1.025,1.025,0,0,0,.017.435c.077.3.284.541.467.563a.278.278,0,0,0,.207-.057C1101.92,1462.145,1101.935,1462.114,1101.943,1462.118Z" fill="#eb996e"/>
          </g>
        </g>
        <g id="Group_7486" data-name="Group 7486">
          <path id="Path_3124" data-name="Path 3124" d="M1101.927,1463.473c.029-.081.047-.165.069-.248l.051-.181h0a2.852,2.852,0,0,0,.06-.548,1.05,1.05,0,0,1-1.112-.24,1.162,1.162,0,0,1-.262-1.151,1.669,1.669,0,0,1,.991-.934c.426-.179.885-.268,1.3-.467a4.351,4.351,0,0,0,1.922-2.217,3.034,3.034,0,0,0,.313-2.062,3.1,3.1,0,0,0-2.345-1.787,7.4,7.4,0,0,0-4.549-.073c-1.452.535-3.2,1.475-3.2,3.08-.858-.071-1.347.681-1.688,1.611a12.59,12.59,0,0,0-.378,1.763" fill="#263238"/>
        </g>
        <path id="Path_3125" data-name="Path 3125" d="M1096.341,1466.707a7.534,7.534,0,0,1-3.239-6.689c.219-4.6,8.825,3.455,8.825,3.455s-1.648,5.419-5.41,3.234" fill="#263238"/>
        <g id="Group_7487" data-name="Group 7487">
          <path id="Path_3126" data-name="Path 3126" d="M1095.063,1462.119c-.023-.021.15-.183.29-.517a1.662,1.662,0,0,0-.99-2.263c-.34-.124-.576-.107-.576-.138a.945.945,0,0,1,.615.017,1.695,1.695,0,0,1,1.066,2.438C1095.285,1462,1095.073,1462.134,1095.063,1462.119Z" fill="#e8505b"/>
        </g>
        <g id="Group_7488" data-name="Group 7488">
          <path id="Path_3127" data-name="Path 3127" d="M1093.292,1459.3c0,.009-.088.015-.225-.048a1.007,1.007,0,0,1-.454-.436,1.521,1.521,0,0,1-.15-.921,2.85,2.85,0,0,1,.355-1.078,1.737,1.737,0,0,1,.855-.758,1.23,1.23,0,0,1,.936,0,1.035,1.035,0,0,1,.481.406c.075.131.084.215.074.218a1.229,1.229,0,0,0-.6-.506,1.13,1.13,0,0,0-.827.039,1.64,1.64,0,0,0-.763.7,2.167,2.167,0,0,0-.247,1.85A1.169,1.169,0,0,0,1093.292,1459.3Z" fill="#263238"/>
        </g>
      </g>
      <g id="Group_7490" data-name="Group 7490">
        <path id="Path_3128" data-name="Path 3128" d="M1132.382,1460.855c-.154-.158-.532-.083-.532-.083a2.042,2.042,0,0,0,0-.667c-.069-.217-.554-.175-.554-.175a2.246,2.246,0,0,1,.013-.547.2.2,0,0,0-.113-.193,1.786,1.786,0,0,0-.724-.132c-.3-.212.9-1.892,1.349-2.429s.366-.956-.031-.956a11.25,11.25,0,0,0-2.1,2.157c-.428.541-1.575,2.049-1.614.846a3.092,3.092,0,0,0-.824-2.268c-.3-.155-.628.209-.461.543a4.419,4.419,0,0,1,.269,1.183,2.886,2.886,0,0,1-.044.972,11.251,11.251,0,0,1-.518,1.736l-.029-.016s-8.391,8.045-9,8.619c-.544.517-11.446-.611-13.631-.843a15.037,15.037,0,0,0-2.247-.153c-.947.041-1.116.176-2.064.189a42.005,42.005,0,0,0-6.733.562c-2.177.368-3.376,2.072-4.05,4.175-2.2,6.88-8.169,23.078-9.058,32.228a37.973,37.973,0,0,0-1.8,3.718c-.618,1.682-.468,1.739-.26,1.778.559.1,1.2-2.917,1.437-2.188s-1.211,3.6-.623,3.687c.768.11,1.379-3.064,1.451-3.33s.456-.17.379.066c-.111.338-1.193,3.925-.44,4.04.417.064.462-.7.462-.7s.764-3.43,1.118-3.364-.023,2.1-.2,2.771.072,1.022.431.854a11.27,11.27,0,0,0,1-2.841c.159-.672.564-2.522,1.106-1.448a3.094,3.094,0,0,0,1.7,1.709.377.377,0,0,0,.189-.687,4.367,4.367,0,0,1-.743-.959,2.861,2.861,0,0,1-.37-.9,9.977,9.977,0,0,1-.268-1.946l-.062-.395c.86-4.264,3.779-18.793,7.343-26.786l1.03,5.039.637,2.236-3.911,9.664,16.688-.22-2.487-9.587,3.022-10h0c3.271.073,11.673.195,13.085-.436,1.76-.787,10.87-12.271,10.87-12.271h0a21.771,21.771,0,0,0,1.7-1.477S1132.716,1461.2,1132.382,1460.855Z" fill="#ffbe9d"/>
      </g>
      <g id="Group_7498" data-name="Group 7498">
        <g id="Group_7491" data-name="Group 7491">
          <path id="Path_3129" data-name="Path 3129" d="M1088.565,1488.51c.483-1.652,2.971-9.824,2.971-9.824s1.221,6.662.9,7.465a14.1,14.1,0,0,1-1.049,1.982c-2.822,4.3-2.451,6.445-2.451,6.445l17.044-.52c.042-2.384-1.369-7.926-1.664-8.809s.683-3.781.683-3.781,1.926-1.956,1.852-2.963a16.157,16.157,0,0,0-.336-2.683l12.624.241-1.413-6.863-12.172-.889-4.051-.38c-2.036,1.718-5.09,0-5.09,0-3.885.38-4.453,1-6.047,2.594-1.891,1.889-7.007,16.325-7.007,16.325Z" fill="#e8505b"/>
        </g>
        <g id="Group_7493" data-name="Group 7493">
          <g id="Group_7492" data-name="Group 7492">
            <path id="Path_3130" data-name="Path 3130" d="M1098.646,1486.848a3.651,3.651,0,0,1-.9.045c-.555,0-1.321-.037-2.164-.122s-1.6-.2-2.145-.311a3.7,3.7,0,0,1-.872-.223,4.385,4.385,0,0,1,.894.083c.548.071,1.305.167,2.143.252s1.6.141,2.15.18A4.437,4.437,0,0,1,1098.646,1486.848Z" fill="#263238"/>
          </g>
        </g>
        <g id="Group_7495" data-name="Group 7495">
          <g id="Group_7494" data-name="Group 7494">
            <path id="Path_3131" data-name="Path 3131" d="M1099.812,1485.4a3.919,3.919,0,0,1-.93.317,16.878,16.878,0,0,1-4.7.559,4.029,4.029,0,0,1-.979-.091,6.156,6.156,0,0,1,.979-.051c.6-.019,1.434-.063,2.346-.171s1.731-.261,2.321-.383A6.12,6.12,0,0,1,1099.812,1485.4Z" fill="#263238"/>
          </g>
        </g>
        <g id="Group_7497" data-name="Group 7497">
          <g id="Group_7496" data-name="Group 7496">
            <path id="Path_3132" data-name="Path 3132" d="M1105.546,1478.932a3.646,3.646,0,0,1-.117.87c-.1.531-.255,1.262-.451,2.063s-.4,1.521-.555,2.038a3.624,3.624,0,0,1-.3.825,3.978,3.978,0,0,1,.163-.861l.5-2.05c.189-.759.36-1.447.508-2.046A4.021,4.021,0,0,1,1105.546,1478.932Z" fill="#263238"/>
          </g>
        </g>
      </g>
      <g id="Group_7516" data-name="Group 7516">
        <g id="Group_7499" data-name="Group 7499">
          <path id="Path_3133" data-name="Path 3133" d="M1088.82,1494.693l17.045-.52,7.413,28.961-1.365,33.22h-9.022l1.118-32.513-6.593-20.161,1,53.016-9.108.135-.945-49.777a56.566,56.566,0,0,1-.331-5.988Z" fill="#455a64"/>
        </g>
        <g id="Group_7501" data-name="Group 7501">
          <g id="Group_7500" data-name="Group 7500">
            <path id="Path_3134" data-name="Path 3134" d="M1099.686,1504.09a3.23,3.23,0,0,1-.836-.05c-.513-.06-1.218-.168-1.991-.323s-1.465-.329-1.961-.472a3.246,3.246,0,0,1-.791-.277c.016-.056,1.253.244,2.791.553S1099.693,1504.033,1099.686,1504.09Z" fill="#263238"/>
          </g>
        </g>
        <g id="Group_7503" data-name="Group 7503">
          <g id="Group_7502" data-name="Group 7502">
            <path id="Path_3135" data-name="Path 3135" d="M1111.831,1554.532c0,.055-2.043.1-4.562.1a37.619,37.619,0,0,1-4.314-.133c0-.055,1.794-.067,4.314-.067S1111.831,1554.477,1111.831,1554.532Z" fill="#263238"/>
          </g>
        </g>
        <g id="Group_7505" data-name="Group 7505">
          <g id="Group_7504" data-name="Group 7504">
            <path id="Path_3136" data-name="Path 3136" d="M1098.288,1554.632c0,.055-1.981.1-4.425.1s-4.426-.045-4.426-.1,1.981-.1,4.426-.1S1098.288,1554.577,1098.288,1554.632Z" fill="#263238"/>
          </g>
        </g>
        <g id="Group_7507" data-name="Group 7507">
          <g id="Group_7506" data-name="Group 7506">
            <path id="Path_3137" data-name="Path 3137" d="M1097.177,1554.632c-.055,0-.3-11.461-.535-25.6s-.39-25.6-.335-25.6.3,11.459.535,25.6S1097.232,1554.631,1097.177,1554.632Z" fill="#263238"/>
          </g>
        </g>
        <g id="Group_7509" data-name="Group 7509">
          <g id="Group_7508" data-name="Group 7508">
            <path id="Path_3138" data-name="Path 3138" d="M1110.619,1554.532a.928.928,0,0,1,0-.157l.008-.461c.012-.415.03-1.01.052-1.77.053-1.547.131-3.768.226-6.508.21-5.5.5-13.09.821-21.469l.009-.226,0,.029-5.17-20.7c-.65-2.64-1.176-4.78-1.543-6.27-.175-.733-.313-1.306-.409-1.707-.043-.188-.077-.335-.1-.445a.787.787,0,0,1-.028-.153,1.022,1.022,0,0,1,.047.148c.03.108.07.254.121.44.1.4.254.969.446,1.7.381,1.486.928,3.621,1.6,6.255,1.338,5.3,3.184,12.6,5.227,20.687l0,.014v.015c0,.07-.006.148-.009.225-.344,8.379-.654,15.963-.88,21.467-.122,2.739-.221,4.958-.289,6.505-.039.76-.069,1.354-.089,1.769-.012.194-.022.347-.029.46A.821.821,0,0,1,1110.619,1554.532Z" fill="#263238"/>
          </g>
        </g>
        <g id="Group_7511" data-name="Group 7511">
          <g id="Group_7510" data-name="Group 7510">
            <path id="Path_3139" data-name="Path 3139" d="M1107.679,1523.265a10.472,10.472,0,0,1-1.993.444c-.829.143-1.545.24-1.858.258v-.078c.1.028.159.05.157.064s-.062.018-.169.014l-.233-.01.232-.068c.3-.088,1.008-.235,1.837-.377A10.413,10.413,0,0,1,1107.679,1523.265Z" fill="#263238"/>
          </g>
        </g>
        <g id="Group_7513" data-name="Group 7513">
          <g id="Group_7512" data-name="Group 7512">
            <path id="Path_3140" data-name="Path 3140" d="M1107.506,1524.37a10.266,10.266,0,0,1-1.794-.082,10.141,10.141,0,0,1-1.786-.2,11.422,11.422,0,0,1,3.58.279Z" fill="#263238"/>
          </g>
        </g>
        <g id="Group_7514" data-name="Group 7514">
          <path id="Path_3141" data-name="Path 3141" d="M1088.745,1495.305a2.34,2.34,0,0,0,1.682.895,7.613,7.613,0,0,0,2.067-.039,107.1,107.1,0,0,0,13.371-1.988c-5.577.313-11.467.207-17.045.52,0,0-.047.384-.058.476" fill="#263238"/>
        </g>
        <g id="Group_7515" data-name="Group 7515">
          <path id="Path_3142" data-name="Path 3142" d="M1094.494,1503.167l3.142,12.2-.22-11.684Z" fill="#263238"/>
        </g>
      </g>
      <g id="Group_7519" data-name="Group 7519">
        <g id="Group_7517" data-name="Group 7517">
          <path id="Path_3143" data-name="Path 3143" d="M1093.86,1459.443c-1.211-.321-2.476.969-2.52,2.221-.013.358.04.77-.214,1.023-.27.269-.712.189-1.091.219a1.733,1.733,0,0,0-1.54,1.512c-.055.559.167,1.157-.066,1.668-.222.486-.774.715-1.15,1.094a2.455,2.455,0,0,0-.6,1.9,7.146,7.146,0,0,0,.534,1.982,2.219,2.219,0,0,0,1.1,1.454h5.091l.384-1.923.622,1.923h.828l-.445-12.475S1094.789,1459.689,1093.86,1459.443Z" fill="#263238"/>
        </g>
        <g id="Group_7518" data-name="Group 7518">
          <path id="Path_3144" data-name="Path 3144" d="M1086.9,1465.4a.343.343,0,0,0-.136.028.268.268,0,0,0-.122.331.585.585,0,0,0,.46.374.6.6,0,0,0,.67-.806,2.042,2.042,0,0,0-.278-.46,1.638,1.638,0,0,1-.315-1.218,1.55,1.55,0,0,1,.773-1.153,1.641,1.641,0,0,1,1.484-.086,2.722,2.722,0,0,0,1.325.443.609.609,0,0,0,.5-.3,1.276,1.276,0,0,0,.069-.613,2.787,2.787,0,0,1,.8-2.152,2.053,2.053,0,0,1,1.45-.558,1.607,1.607,0,0,1,.423.072.411.411,0,0,1,.136.061,3.132,3.132,0,0,0-.559-.063,2.038,2.038,0,0,0-1.363.58,2.686,2.686,0,0,0-.726,2.054,1.4,1.4,0,0,1-.082.7.776.776,0,0,1-.633.4,1.429,1.429,0,0,1-.746-.132c-.231-.1-.444-.227-.668-.319a1.466,1.466,0,0,0-1.328.072,1.391,1.391,0,0,0-.7,1.024,1.488,1.488,0,0,0,.274,1.11,2.155,2.155,0,0,1,.287.5.735.735,0,0,1-.378.906.7.7,0,0,1-.442.044.654.654,0,0,1-.508-.454.312.312,0,0,1,.174-.382C1086.848,1465.361,1086.9,1465.4,1086.9,1465.4Z" fill="#263238"/>
        </g>
      </g>
      <g id="Group_7520" data-name="Group 7520">
        <path id="Path_3145" data-name="Path 3145" d="M1106.624,1475.7a1.278,1.278,0,0,1-.392-.008,3.389,3.389,0,0,1-1.03-.3,3.877,3.877,0,0,1-1.274-.958,3.532,3.532,0,0,1-.673-3.691,3.867,3.867,0,0,1,.854-1.346,3.331,3.331,0,0,1,.857-.645,1.271,1.271,0,0,1,.364-.146,5.136,5.136,0,0,0-1.129.878,3.931,3.931,0,0,0-.791,1.316,3.446,3.446,0,0,0,.643,3.526,3.924,3.924,0,0,0,1.205.952A5.139,5.139,0,0,0,1106.624,1475.7Z" fill="#263238"/>
      </g>
    </g>
  </g>
</svg>
